<svg xmlns="http://www.w3.org/2000/svg" viewBox="0 0 1024 1024" role="img" aria-label="MyCinema logo">
  <defs>
    <linearGradient id="disc" x1="160" y1="120" x2="860" y2="900" gradientUnits="userSpaceOnUse">
      <stop offset="0" stop-color="#171d2d"/>
      <stop offset="0.55" stop-color="#090d18"/>
      <stop offset="1" stop-color="#05070d"/>
    </linearGradient>
    <linearGradient id="blueMagenta" x1="262" y1="250" x2="685" y2="680" gradientUnits="userSpaceOnUse">
      <stop offset="0" stop-color="#45a3ff"/>
      <stop offset="0.44" stop-color="#5534ef"/>
      <stop offset="1" stop-color="#e6338f"/>
    </linearGradient>
    <linearGradient id="pink" x1="562" y1="272" x2="775" y2="665" gradientUnits="userSpaceOnUse">
      <stop offset="0" stop-color="#ff565d"/>
      <stop offset="1" stop-color="#d82b86"/>
    </linearGradient>
    <linearGradient id="word" x1="265" y1="742" x2="750" y2="742" gradientUnits="userSpaceOnUse">
      <stop offset="0" stop-color="#4ca5ff"/>
      <stop offset="0.18" stop-color="#8a35ef"/>
      <stop offset="0.4" stop-color="#ffffff"/>
      <stop offset="1" stop-color="#ffffff"/>
    </linearGradient>
    <filter id="softShadow" x="-20%" y="-20%" width="140%" height="140%">
      <feDropShadow dx="0" dy="16" stdDeviation="22" flood-color="#000000" flood-opacity="0.35"/>
    </filter>
  </defs>

  <rect width="1024" height="1024" fill="#000000"/>
  <circle cx="512" cy="512" r="448" fill="url(#disc)" stroke="#23283a" stroke-width="4"/>

  <g filter="url(#softShadow)">
    <path d="M700 259c-18 0-35 6-49 17L462 419l196 148c19 15 48 1 48-23v-75l44-34c22-17 54-1 54 27v156c0 37-43 57-72 35L333 353c-29-22-73-1-73 35v224c0 37 30 67 67 67h86c16 0 29-13 29-29V429c0-17 20-27 34-17l167 126c10 8 10 24 0 32l-79 60c-24 18-11 56 19 56h117c37 0 67-30 67-67V326c0-37-30-67-67-67Z" fill="url(#pink)"/>
    <path d="M327 259c-37 0-67 30-67 67v286c0 37 30 67 67 67h86c16 0 29-13 29-29V429c0-17 20-27 34-17l264 199c27 20 66 1 66-33 0-13-6-26-17-34L367 272c-12-8-26-13-40-13Z" fill="url(#blueMagenta)" opacity="0.96"/>
    <rect x="294" y="339" width="39" height="39" rx="8" fill="#080b14"/>
    <rect x="294" y="411" width="39" height="39" rx="8" fill="#080b14"/>
    <rect x="294" y="484" width="39" height="39" rx="8" fill="#080b14"/>
    <rect x="294" y="557" width="39" height="39" rx="8" fill="#080b14"/>
    <path d="M461 412c0-17 20-27 34-17l167 126c21 16 21 48 0 64l-81 61c-22 17-54 1-54-27v-40l-52-39c-9-7-14-18-14-29V412Z" fill="#070a13"/>
  </g>

  <text x="512" y="788" text-anchor="middle" font-family="Inter, Segoe UI, Arial, sans-serif" font-size="84" font-weight="400" letter-spacing="0" fill="url(#word)">mycinema</text>
</svg>
